//src/assets/alerticon.svg
<svg width="52" height="50" viewBox="0 0 52 50" fill="none" xmlns="http://www.w3.org/2000/svg">
<path fill-rule="evenodd" clip-rule="evenodd" d="M25.8294 29.766C25.1535 29.766 24.5052 29.4975 24.0272 29.0195C23.5493 28.5415 23.2808 27.8933 23.2808 27.2173V14.4741C23.2808 13.7982 23.5493 13.1499 24.0272 12.672C24.5052 12.194 25.1535 11.9255 25.8294 11.9255C26.5053 11.9255 27.1536 12.194 27.6316 12.672C28.1095 13.1499 28.378 13.7982 28.378 14.4741V27.2173C28.378 27.8933 28.1095 28.5415 27.6316 29.0195C27.1536 29.4975 26.5053 29.766 25.8294 29.766Z" fill="#1D4719"/>
<path d="M23.1461 35.266C23.1461 34.5542 23.4289 33.8716 23.9322 33.3683C24.4355 32.865 25.1181 32.5823 25.8298 32.5823C26.5416 32.5823 27.2242 32.865 27.7275 33.3683C28.2308 33.8716 28.5136 34.5542 28.5136 35.266C28.5136 35.9778 28.2308 36.6604 27.7275 37.1637C27.2242 37.667 26.5416 37.9497 25.8298 37.9497C25.1181 37.9497 24.4355 37.667 23.9322 37.1637C23.4289 36.6604 23.1461 35.9778 23.1461 35.266Z" fill="#1D4719"/>
<path fill-rule="evenodd" clip-rule="evenodd" d="M35.0226 6.42565L49.9985 33.7471C53.852 40.7788 48.7929 49.3907 40.8055 49.3907H10.8539C2.86642 49.3907 -2.19518 40.7762 1.66091 33.7445L16.6367 6.4231C20.6279 -0.853273 31.0315 -0.853273 35.0226 6.4231V6.42565ZM30.4249 8.97429C28.4318 5.33228 23.2275 5.33228 21.2345 8.97429L6.25611 36.2906C4.32679 39.8078 6.85759 44.1124 10.8513 44.1124H40.803C44.7967 44.1124 47.3275 39.8052 45.3982 36.2881L30.4249 8.97429Z" fill="#1D4719"/>
</svg>
