//src/assets/analytics.svg
<svg width="30" height="30" viewBox="0 0 30 30" fill="none" xmlns="http://www.w3.org/2000/svg">
<path d="M23.75 3.75H6.25C4.875 3.75 3.75 4.875 3.75 6.25V23.75C3.75 25.125 4.875 26.25 6.25 26.25H23.75C25.125 26.25 26.25 25.125 26.25 23.75V6.25C26.25 4.875 25.125 3.75 23.75 3.75ZM23.75 23.75H6.25V6.25H23.75V23.75Z" fill="white" fill-opacity="0.51"/>
<path d="M8.75 15H11.25V21.25H8.75V15ZM18.75 8.75H21.25V21.25H18.75V8.75ZM13.75 17.5H16.25V21.25H13.75V17.5ZM13.75 12.5H16.25V15H13.75V12.5Z" fill="white" fill-opacity="0.51"/>
</svg>
