//src/assets/battery.svg
<svg width="61" height="37" viewBox="0 0 61 37" fill="none" xmlns="http://www.w3.org/2000/svg">
<path d="M12.2001 27.4503C11.3912 27.4503 10.6155 27.1289 10.0435 26.5569C9.47149 25.985 9.15015 25.2092 9.15015 24.4003V12.2003C9.15015 11.3914 9.47149 10.6156 10.0435 10.0436C10.6155 9.47161 11.3912 9.15027 12.2001 9.15027H30.5001V27.4503H12.2001Z" fill="#1D4719"/>
<path fill-rule="evenodd" clip-rule="evenodd" d="M48.8 0.00012207H9.15C6.72327 0.00012207 4.39593 0.964137 2.67997 2.6801C0.964015 4.39605 0 6.72339 0 9.15012V27.4501C0 29.8769 0.964015 32.2042 2.67997 33.9202C4.39593 35.6361 6.72327 36.6001 9.15 36.6001H48.8C51.2267 36.6001 53.5541 35.6361 55.27 33.9202C56.986 32.2042 57.95 29.8769 57.95 27.4501C58.7589 27.4501 59.5347 27.1288 60.1067 26.5568C60.6787 25.9848 61 25.209 61 24.4001V12.2001C61 11.3912 60.6787 10.6154 60.1067 10.0434C59.5347 9.47146 58.7589 9.15012 57.95 9.15012C57.95 6.72339 56.986 4.39605 55.27 2.6801C53.5541 0.964137 51.2267 0.00012207 48.8 0.00012207ZM48.8 6.10012H9.15C8.34109 6.10012 7.56531 6.42146 6.99332 6.99345C6.42134 7.56543 6.1 8.34121 6.1 9.15012V27.4501C6.1 28.259 6.42134 29.0348 6.99332 29.6068C7.56531 30.1788 8.34109 30.5001 9.15 30.5001H48.8C49.6089 30.5001 50.3847 30.1788 50.9567 29.6068C51.5287 29.0348 51.85 28.259 51.85 27.4501V9.15012C51.85 8.34121 51.5287 7.56543 50.9567 6.99345C50.3847 6.42146 49.6089 6.10012 48.8 6.10012Z" fill="#1D4719"/>
</svg>
