//src/assets/charger.svg
<svg width="58" height="58" viewBox="0 0 58 58" fill="none" xmlns="http://www.w3.org/2000/svg">
<path fill-rule="evenodd" clip-rule="evenodd" d="M0 27.2649V0.264893H27.4737L40.4028 12.9711C37.8512 13.9431 35.7752 15.8504 34.6081 18.2649H34.5628L33.9936 18.2854L33.9375 18.2895C29.1958 18.6333 25.4598 22.519 25.4598 27.2649C25.4598 29.4691 26.2829 31.5967 27.7729 33.2442L34.6579 40.8563C33.0178 39.8478 31.0788 39.2649 29.0001 39.2649H18.3158V42.265H16.7894C16.3268 42.265 15.8802 42.3323 15.4594 42.4578L0 27.2649ZM13.7369 18.2649C16.2657 18.2649 18.3158 16.2502 18.3158 13.7649C18.3158 11.2796 16.2657 9.2649 13.7369 9.2649C11.208 9.2649 9.1579 11.2796 9.1579 13.7649C9.1579 16.2502 11.208 18.2649 13.7369 18.2649ZM51.8948 18.2649V15.265H44.2631C40.5705 15.265 37.4903 17.8425 36.7839 21.2667L34.6177 21.2649L34.162 21.2813C31.0029 21.5104 28.5124 24.1018 28.5124 27.2649C28.5125 28.7344 29.0612 30.1527 30.0545 31.2511L40.9271 43.2718L41.1638 43.5686C42.0229 44.7972 41.8367 46.491 40.6735 47.5072C40.1148 47.9953 39.3931 48.2649 38.6455 48.2649L36.4794 48.2667C35.7729 44.8425 32.6927 42.265 29.0001 42.265H21.3684V45.2649H16.7894C15.9465 45.2649 15.2632 45.9366 15.2632 46.765C15.2632 47.5934 15.9465 48.2649 16.7894 48.2649H21.3684V51.265H16.7894C15.9465 51.265 15.2632 51.9365 15.2632 52.7649C15.2632 53.5933 15.9465 54.2649 16.7894 54.2649H21.3684V57.2649H29.0001C32.6917 57.2649 35.7711 54.6889 36.4786 51.2663L38.6455 51.265L39.2033 51.2398C40.5014 51.1228 41.7274 50.6004 42.7017 49.7493C45.2219 47.5478 45.4488 43.7555 43.2087 41.2788L32.3361 29.258L32.1066 28.9707C31.7539 28.4694 31.565 27.8744 31.565 27.2649C31.565 25.6081 32.9318 24.265 34.6177 24.265L36.7846 24.2662C37.4922 27.6889 40.5715 30.2649 44.2631 30.2649H51.8948V27.2649H56.4738C57.3167 27.2649 58 26.5933 58 25.7649C58 24.9364 57.3167 24.265 56.4738 24.265H51.8948V21.2649H56.4738C57.3167 21.2649 58 20.5934 58 19.765C58 18.9365 57.3167 18.2649 56.4738 18.2649H51.8948Z" fill="#1D4719"/>
</svg>
