//src/assets/device.svg
<svg width="30" height="31" viewBox="0 0 30 31" fill="none" xmlns="http://www.w3.org/2000/svg">
<g clip-path="url(#clip0_801_279)">
<path d="M1.875 0.5C1.37772 0.5 0.900806 0.697544 0.549175 1.04917C0.197544 1.40081 0 1.87772 0 2.375L0 19.25C0 19.7473 0.197544 20.2242 0.549175 20.5758C0.900806 20.9275 1.37772 21.125 1.875 21.125H11.25V23H3.75V26.75H15V17.375H3.75V4.25H22.5V11.75H26.25V2.375C26.25 1.87772 26.0525 1.40081 25.7008 1.04917C25.3492 0.697544 24.8723 0.5 24.375 0.5H1.875Z" fill="white" fill-opacity="0.51"/>
<path d="M18.75 13.625C18.2527 13.625 17.7758 13.8225 17.4242 14.1742C17.0725 14.5258 16.875 15.0027 16.875 15.5V28.625C16.875 29.1223 17.0725 29.5992 17.4242 29.9508C17.7758 30.3025 18.2527 30.5 18.75 30.5H28.125C28.6223 30.5 29.0992 30.3025 29.4508 29.9508C29.8025 29.5992 30 29.1223 30 28.625V15.5C30 15.0027 29.8025 14.5258 29.4508 14.1742C29.0992 13.8225 28.6223 13.625 28.125 13.625H18.75ZM20.625 26.75V17.375H26.25V26.75H20.625Z" fill="white" fill-opacity="0.51"/>
</g>
<defs>
<clipPath id="clip0_801_279">
<rect width="30" height="30" fill="white" transform="translate(0 0.5)"/>
</clipPath>
</defs>
</svg>
