//src/assets/reminder.svg
<svg width="26" height="25" viewBox="0 0 26 25" fill="none" xmlns="http://www.w3.org/2000/svg">
<path d="M24.2498 0.322266C24.1346 0.322266 24.0164 0.343482 23.8982 0.391976L6.42823 7.41148H1.4576C1.19088 7.41148 0.972656 7.63576 0.972656 7.9146V16.9769C0.972656 17.2558 1.19088 17.48 1.4576 17.48H4.53696C4.42482 17.8316 4.36723 18.2044 4.36723 18.5833C4.36723 20.5806 5.99784 22.2052 8.00428 22.2052C9.68339 22.2052 11.0988 21.0656 11.5171 19.5259L23.9012 24.5026C24.0194 24.548 24.1376 24.5723 24.2528 24.5723C24.765 24.5723 25.2227 24.1419 25.2227 23.566V1.32852C25.2196 0.75265 24.765 0.322266 24.2498 0.322266ZM8.00428 20.032C7.2011 20.032 6.54946 19.3834 6.54946 18.5833C6.54946 18.2438 6.66767 17.9195 6.88286 17.6619L9.45607 18.6954C9.39545 19.441 8.76806 20.032 8.00428 20.032Z" fill="#3A7D34"/>
</svg>
